<?xml version="1.0" encoding="UTF-8" standalone="no"?>
<svg
   viewBox="0 0 640 960"
   version="1.1"
   id="svg4"
   sodipodi:docname="fa-charging-station-light.svg"
   inkscape:version="1.1.1 (3bf5ae0d25, 2021-09-20)"
   width="640"
   height="960"
   xmlns:inkscape="http://www.inkscape.org/namespaces/inkscape"
   xmlns:sodipodi="http://sodipodi.sourceforge.net/DTD/sodipodi-0.dtd"
   xmlns="http://www.w3.org/2000/svg"
   xmlns:svg="http://www.w3.org/2000/svg">
  <defs
     id="defs8" />
  <sodipodi:namedview
     id="namedview6"
     pagecolor="#ffffff"
     bordercolor="#666666"
     borderopacity="1.0"
     inkscape:pageshadow="2"
     inkscape:pageopacity="0.0"
     inkscape:pagecheckerboard="0"
     showgrid="false"
     inkscape:zoom="1.609375"
     inkscape:cx="319.68932"
     inkscape:cy="480"
     inkscape:window-width="1920"
     inkscape:window-height="1009"
     inkscape:window-x="-8"
     inkscape:window-y="-8"
     inkscape:window-maximized="1"
     inkscape:current-layer="svg4"
     fit-margin-top="0"
     fit-margin-left="0"
     fit-margin-right="0"
     fit-margin-bottom="0" />
  <rect
     style="fill:none"
     id="rect82"
     width="640"
     height="960"
     x="0"
     y="0" />
  <!-- Font Awesome Pro 5.15.3 by @fontawesome - https://fontawesome.com License - https://fontawesome.com/license (Commercial License) -->
  <path
     d="m 592,352 h -16 v -48 c 0,-8.84 -7.16,-16 -16,-16 -8.84,0 -16,7.16 -16,16 v 48 h -32 v -48 c 0,-8.84 -7.16,-16 -16,-16 -8.84,0 -16,7.16 -16,16 v 48 h -16 c -8.84,0 -16,7.16 -16,16 v 48 c 0,38.7 27.48,70.97 64,78.39 V 608 c 0,17.64 -14.34,32 -32,32 -17.66,0 -32,-14.36 -32,-32 v -48 c 0,-44.11 -35.88,-80 -80,-80 H 352 V 288 c 0,-35.35 -28.65,-64 -64,-64 H 128 c -35.35,0 -64,28.65 -64,64 V 704 H 40 c -4.42,0 -8,3.58 -8,8 v 16 c 0,4.42 3.58,8 8,8 h 336 c 4.42,0 8,-3.58 8,-8 v -16 c 0,-4.42 -3.58,-8 -8,-8 H 352 V 512 h 16 c 26.47,0 48,21.53 48,48 v 48 c 0,35.3 28.72,64 64,64 35.28,0 64,-28.7 64,-64 V 494.39 c 36.52,-7.41 64,-39.69 64,-78.39 v -48 c 0,-8.84 -7.16,-16 -16,-16 z M 320,704 H 96 V 288 c 0,-17.64 14.36,-32 32,-32 h 160 c 17.64,0 32,14.36 32,32 z M 576,416 c 0,26.47 -21.53,48 -48,48 -26.47,0 -48,-21.53 -48,-48 v -32 h 96 z M 272,400 h -16.91 l 15.88,-42.38 C 274.9,347.13 267.13,336 256,336 h -80 c -6.53,0 -12.44,3.98 -14.84,10.06 l -32,80 C 124.94,436.59 132.72,448 144,448 h 19.5 l -19.03,76.12 c -3.89,15.5 15.22,26.76 26.84,15.19 l 112,-112 C 293.35,417.24 286.24,400 272,400 Z m -82.47,75.84 10,-39.97 C 202.06,425.7 194.35,416 184,416 h -16.38 l 19.22,-48 h 46.06 l -15.88,42.38 c -3.28,8.75 1.46,21.62 16.34,21.62 z"
     id="path2"
     style="fill:#ffffff" />
</svg>
