<?xml version="1.0" encoding="UTF-8" standalone="no"?>
<svg
   viewBox="0 0 640 960"
   version="1.1"
   id="svg4"
   sodipodi:docname="fa-charging-station-regular.svg"
   inkscape:version="1.1.1 (3bf5ae0d25, 2021-09-20)"
   width="640"
   height="960"
   xmlns:inkscape="http://www.inkscape.org/namespaces/inkscape"
   xmlns:sodipodi="http://sodipodi.sourceforge.net/DTD/sodipodi-0.dtd"
   xmlns="http://www.w3.org/2000/svg"
   xmlns:svg="http://www.w3.org/2000/svg">
  <defs
     id="defs8" />
  <sodipodi:namedview
     id="namedview6"
     pagecolor="#ffffff"
     bordercolor="#666666"
     borderopacity="1.0"
     inkscape:pageshadow="2"
     inkscape:pageopacity="0.0"
     inkscape:pagecheckerboard="0"
     showgrid="false"
     inkscape:zoom="1.138"
     inkscape:cx="64.586996"
     inkscape:cy="440.68542"
     inkscape:window-width="1920"
     inkscape:window-height="1009"
     inkscape:window-x="-8"
     inkscape:window-y="-8"
     inkscape:window-maximized="1"
     inkscape:current-layer="svg4"
     fit-margin-top="0"
     fit-margin-left="0"
     fit-margin-right="0"
     fit-margin-bottom="0" />
  <rect
     style="fill:none"
     id="rect72"
     width="640"
     height="960"
     x="0"
     y="0" />
  <!-- Font Awesome Pro 5.15.3 by @fontawesome - https://fontawesome.com License - https://fontawesome.com/license (Commercial License) -->
  <path
     d="m 152.57,448 h 42.39 l -8.78,54.77 c -1.28,4.74 2.86,9.23 8.34,9.23 2.98,0 5.85,-1.37 7.42,-3.74 l 66.93,-99.28 c 3.3,-4.99 -0.82,-11.26 -7.42,-11.26 h -41.22 l 8.28,-36.28 c 1.45,-4.76 -2.66,-9.43 -8.28,-9.43 h -48.57 c -4.3,0 -7.93,2.78 -8.5,6.51 l -19.1,81 c -0.67,4.49 3.33,8.48 8.51,8.48 z M 592,352 h -16 v -48 c 0,-8.84 -7.16,-16 -16,-16 -8.84,0 -16,7.16 -16,16 v 48 h -32 v -48 c 0,-8.84 -7.16,-16 -16,-16 -8.84,0 -16,7.16 -16,16 v 48 h -16 c -8.84,0 -16,7.16 -16,16 v 48 c 0,35.76 23.62,65.69 56,75.93 V 596 c 0,15.44 -12.56,28 -28,28 -15.44,0 -28,-12.56 -28,-28 v -28 c 0,-48.53 -39.47,-88 -88,-88 h -8 V 272 c 0,-26.51 -21.49,-48 -48,-48 H 112 c -26.51,0 -48,21.49 -48,48 V 688 H 40 c -4.42,0 -8,3.58 -8,8 v 32 c 0,4.42 3.58,8 8,8 h 336 c 4.42,0 8,-3.58 8,-8 v -32 c 0,-4.42 -3.58,-8 -8,-8 H 352 V 528 h 8 c 22.06,0 40,17.94 40,40 v 28 c 0,41.91 34.09,76 76,76 41.91,0 76,-34.09 76,-76 V 491.93 c 32.38,-10.24 56,-40.17 56,-75.93 v -48 c 0,-8.84 -7.16,-16 -16,-16 z M 304,688 H 112 V 272 H 304 Z M 560,416 c 0,17.64 -14.36,32 -32,32 -17.64,0 -32,-14.36 -32,-32 v -16 h 64 z"
     id="path2"
     style="fill:#ffffff" />
</svg>
